<svg id="visual" viewBox="0 0 900 600" width="900" height="600" xmlns="http://www.w3.org/2000/svg" xmlns:xlink="http://www.w3.org/1999/xlink" version="1.1"><rect x="0" y="0" width="900" height="600" fill="#000000"></rect><path d="M0 248L21.5 247.8C43 247.7 86 247.3 128.8 232.2C171.7 217 214.3 187 257.2 183.8C300 180.7 343 204.3 385.8 207.5C428.7 210.7 471.3 193.3 514.2 195.8C557 198.3 600 220.7 642.8 225.8C685.7 231 728.3 219 771.2 208.3C814 197.7 857 188.3 878.5 183.7L900 179L900 0L878.5 0C857 0 814 0 771.2 0C728.3 0 685.7 0 642.8 0C600 0 557 0 514.2 0C471.3 0 428.7 0 385.8 0C343 0 300 0 257.2 0C214.3 0 171.7 0 128.8 0C86 0 43 0 21.5 0L0 0Z" fill="#fa7268"></path><path d="M0 200L21.5 195.3C43 190.7 86 181.3 128.8 174.2C171.7 167 214.3 162 257.2 165.8C300 169.7 343 182.3 385.8 177.7C428.7 173 471.3 151 514.2 144.2C557 137.3 600 145.7 642.8 156.2C685.7 166.7 728.3 179.3 771.2 185.5C814 191.7 857 191.3 878.5 191.2L900 191L900 0L878.5 0C857 0 814 0 771.2 0C728.3 0 685.7 0 642.8 0C600 0 557 0 514.2 0C471.3 0 428.7 0 385.8 0C343 0 300 0 257.2 0C214.3 0 171.7 0 128.8 0C86 0 43 0 21.5 0L0 0Z" fill="#ef5f67"></path><path d="M0 93L21.5 101.8C43 110.7 86 128.3 128.8 129.2C171.7 130 214.3 114 257.2 108.5C300 103 343 108 385.8 112C428.7 116 471.3 119 514.2 120.7C557 122.3 600 122.7 642.8 127C685.7 131.3 728.3 139.7 771.2 143.8C814 148 857 148 878.5 148L900 148L900 0L878.5 0C857 0 814 0 771.2 0C728.3 0 685.7 0 642.8 0C600 0 557 0 514.2 0C471.3 0 428.7 0 385.8 0C343 0 300 0 257.2 0C214.3 0 171.7 0 128.8 0C86 0 43 0 21.5 0L0 0Z" fill="#e34c67"></path><path d="M0 105L21.5 103.3C43 101.7 86 98.3 128.8 91.7C171.7 85 214.3 75 257.2 70.8C300 66.7 343 68.3 385.8 74.7C428.7 81 471.3 92 514.2 96.3C557 100.7 600 98.3 642.8 99.7C685.7 101 728.3 106 771.2 101.2C814 96.3 857 81.7 878.5 74.3L900 67L900 0L878.5 0C857 0 814 0 771.2 0C728.3 0 685.7 0 642.8 0C600 0 557 0 514.2 0C471.3 0 428.7 0 385.8 0C343 0 300 0 257.2 0C214.3 0 171.7 0 128.8 0C86 0 43 0 21.5 0L0 0Z" fill="#d53867"></path><path d="M0 31L21.5 34.2C43 37.3 86 43.7 128.8 46.7C171.7 49.7 214.3 49.3 257.2 52.5C300 55.7 343 62.3 385.8 63.5C428.7 64.7 471.3 60.3 514.2 54.7C557 49 600 42 642.8 38.3C685.7 34.7 728.3 34.3 771.2 38C814 41.7 857 49.3 878.5 53.2L900 57L900 0L878.5 0C857 0 814 0 771.2 0C728.3 0 685.7 0 642.8 0C600 0 557 0 514.2 0C471.3 0 428.7 0 385.8 0C343 0 300 0 257.2 0C214.3 0 171.7 0 128.8 0C86 0 43 0 21.5 0L0 0Z" fill="#c62368"></path></svg>