<svg id="visual" viewBox="0 0 900 600" width="900" height="600" xmlns="http://www.w3.org/2000/svg" xmlns:xlink="http://www.w3.org/1999/xlink" version="1.1"><rect x="0" y="0" width="900" height="600" fill="#000000"></rect><path d="M0 430L21.5 426.3C43 422.7 86 415.3 128.8 416C171.7 416.7 214.3 425.3 257.2 428.2C300 431 343 428 385.8 420.7C428.7 413.3 471.3 401.7 514.2 398.2C557 394.7 600 399.3 642.8 407.7C685.7 416 728.3 428 771.2 427.7C814 427.3 857 414.7 878.5 408.3L900 402L900 601L878.5 601C857 601 814 601 771.2 601C728.3 601 685.7 601 642.8 601C600 601 557 601 514.2 601C471.3 601 428.7 601 385.8 601C343 601 300 601 257.2 601C214.3 601 171.7 601 128.8 601C86 601 43 601 21.5 601L0 601Z" fill="#fa7268"></path><path d="M0 463L21.5 457.8C43 452.7 86 442.3 128.8 439.7C171.7 437 214.3 442 257.2 448.8C300 455.7 343 464.3 385.8 464.2C428.7 464 471.3 455 514.2 453.5C557 452 600 458 642.8 451.5C685.7 445 728.3 426 771.2 416.2C814 406.3 857 405.7 878.5 405.3L900 405L900 601L878.5 601C857 601 814 601 771.2 601C728.3 601 685.7 601 642.8 601C600 601 557 601 514.2 601C471.3 601 428.7 601 385.8 601C343 601 300 601 257.2 601C214.3 601 171.7 601 128.8 601C86 601 43 601 21.5 601L0 601Z" fill="#ef5f67"></path><path d="M0 490L21.5 485.5C43 481 86 472 128.8 464C171.7 456 214.3 449 257.2 453.2C300 457.3 343 472.7 385.8 472.5C428.7 472.3 471.3 456.7 514.2 452.2C557 447.7 600 454.3 642.8 464.3C685.7 474.3 728.3 487.7 771.2 491.7C814 495.7 857 490.3 878.5 487.7L900 485L900 601L878.5 601C857 601 814 601 771.2 601C728.3 601 685.7 601 642.8 601C600 601 557 601 514.2 601C471.3 601 428.7 601 385.8 601C343 601 300 601 257.2 601C214.3 601 171.7 601 128.8 601C86 601 43 601 21.5 601L0 601Z" fill="#e34c67"></path><path d="M0 538L21.5 535.7C43 533.3 86 528.7 128.8 526.2C171.7 523.7 214.3 523.3 257.2 518.5C300 513.7 343 504.3 385.8 499.8C428.7 495.3 471.3 495.7 514.2 502.5C557 509.3 600 522.7 642.8 522.8C685.7 523 728.3 510 771.2 505.2C814 500.3 857 503.7 878.5 505.3L900 507L900 601L878.5 601C857 601 814 601 771.2 601C728.3 601 685.7 601 642.8 601C600 601 557 601 514.2 601C471.3 601 428.7 601 385.8 601C343 601 300 601 257.2 601C214.3 601 171.7 601 128.8 601C86 601 43 601 21.5 601L0 601Z" fill="#d53867"></path><path d="M0 556L21.5 554.2C43 552.3 86 548.7 128.8 546.3C171.7 544 214.3 543 257.2 540C300 537 343 532 385.8 532.3C428.7 532.7 471.3 538.3 514.2 542C557 545.7 600 547.3 642.8 547.3C685.7 547.3 728.3 545.7 771.2 546C814 546.3 857 548.7 878.5 549.8L900 551L900 601L878.5 601C857 601 814 601 771.2 601C728.3 601 685.7 601 642.8 601C600 601 557 601 514.2 601C471.3 601 428.7 601 385.8 601C343 601 300 601 257.2 601C214.3 601 171.7 601 128.8 601C86 601 43 601 21.5 601L0 601Z" fill="#c62368"></path></svg>