<svg id="visual" viewBox="0 0 900 600" width="900" height="600" xmlns="http://www.w3.org/2000/svg" xmlns:xlink="http://www.w3.org/1999/xlink" version="1.1"><rect x="0" y="0" width="900" height="600" fill="#000000"></rect><path d="M0 148L21.5 148C43 148 86 148 128.8 139C171.7 130 214.3 112 257.2 110.2C300 108.3 343 122.7 385.8 124.5C428.7 126.3 471.3 115.7 514.2 117C557 118.3 600 131.7 642.8 134.8C685.7 138 728.3 131 771.2 124.7C814 118.3 857 112.7 878.5 109.8L900 107L900 0L878.5 0C857 0 814 0 771.2 0C728.3 0 685.7 0 642.8 0C600 0 557 0 514.2 0C471.3 0 428.7 0 385.8 0C343 0 300 0 257.2 0C214.3 0 171.7 0 128.8 0C86 0 43 0 21.5 0L0 0Z" fill="#fa7268"></path><path d="M0 120L21.5 117.2C43 114.3 86 108.7 128.8 104.3C171.7 100 214.3 97 257.2 99.3C300 101.7 343 109.3 385.8 106.5C428.7 103.7 471.3 90.3 514.2 86.2C557 82 600 87 642.8 93.3C685.7 99.7 728.3 107.3 771.2 111C814 114.7 857 114.3 878.5 114.2L900 114L900 0L878.5 0C857 0 814 0 771.2 0C728.3 0 685.7 0 642.8 0C600 0 557 0 514.2 0C471.3 0 428.7 0 385.8 0C343 0 300 0 257.2 0C214.3 0 171.7 0 128.8 0C86 0 43 0 21.5 0L0 0Z" fill="#ef5f67"></path><path d="M0 56L21.5 61.2C43 66.3 86 76.7 128.8 77C171.7 77.3 214.3 67.7 257.2 64.5C300 61.3 343 64.7 385.8 67.2C428.7 69.7 471.3 71.3 514.2 72.3C557 73.3 600 73.7 642.8 76.2C685.7 78.7 728.3 83.3 771.2 85.8C814 88.3 857 88.7 878.5 88.8L900 89L900 0L878.5 0C857 0 814 0 771.2 0C728.3 0 685.7 0 642.8 0C600 0 557 0 514.2 0C471.3 0 428.7 0 385.8 0C343 0 300 0 257.2 0C214.3 0 171.7 0 128.8 0C86 0 43 0 21.5 0L0 0Z" fill="#e34c67"></path><path d="M0 62L21.5 61.2C43 60.3 86 58.7 128.8 54.8C171.7 51 214.3 45 257.2 42.5C300 40 343 41 385.8 44.7C428.7 48.3 471.3 54.7 514.2 57.2C557 59.7 600 58.3 642.8 59.2C685.7 60 728.3 63 771.2 60.2C814 57.3 857 48.7 878.5 44.3L900 40L900 0L878.5 0C857 0 814 0 771.2 0C728.3 0 685.7 0 642.8 0C600 0 557 0 514.2 0C471.3 0 428.7 0 385.8 0C343 0 300 0 257.2 0C214.3 0 171.7 0 128.8 0C86 0 43 0 21.5 0L0 0Z" fill="#d53867"></path><path d="M0 18L21.5 20C43 22 86 26 128.8 27.8C171.7 29.7 214.3 29.3 257.2 31.2C300 33 343 37 385.8 37.7C428.7 38.3 471.3 35.7 514.2 32.3C557 29 600 25 642.8 22.8C685.7 20.7 728.3 20.3 771.2 22.5C814 24.7 857 29.3 878.5 31.7L900 34L900 0L878.5 0C857 0 814 0 771.2 0C728.3 0 685.7 0 642.8 0C600 0 557 0 514.2 0C471.3 0 428.7 0 385.8 0C343 0 300 0 257.2 0C214.3 0 171.7 0 128.8 0C86 0 43 0 21.5 0L0 0Z" fill="#c62368"></path></svg>