<svg id="visual" viewBox="0 0 900 600" width="900" height="600" xmlns="http://www.w3.org/2000/svg" xmlns:xlink="http://www.w3.org/1999/xlink" version="1.1"><rect x="0" y="0" width="900" height="600" fill="#000000"></rect><path d="M0 450L21.5 450C43 450 86 450 128.8 459C171.7 468 214.3 486 257.2 487.8C300 489.7 343 475.3 385.8 473.5C428.7 471.7 471.3 482.3 514.2 481C557 479.7 600 466.3 642.8 463.2C685.7 460 728.3 467 771.2 473.3C814 479.7 857 485.3 878.5 488.2L900 491L900 601L878.5 601C857 601 814 601 771.2 601C728.3 601 685.7 601 642.8 601C600 601 557 601 514.2 601C471.3 601 428.7 601 385.8 601C343 601 300 601 257.2 601C214.3 601 171.7 601 128.8 601C86 601 43 601 21.5 601L0 601Z" fill="#fa7268"></path><path d="M0 478L21.5 480.8C43 483.7 86 489.3 128.8 493.7C171.7 498 214.3 501 257.2 498.7C300 496.3 343 488.7 385.8 491.5C428.7 494.3 471.3 507.7 514.2 511.8C557 516 600 511 642.8 504.7C685.7 498.3 728.3 490.7 771.2 487C814 483.3 857 483.7 878.5 483.8L900 484L900 601L878.5 601C857 601 814 601 771.2 601C728.3 601 685.7 601 642.8 601C600 601 557 601 514.2 601C471.3 601 428.7 601 385.8 601C343 601 300 601 257.2 601C214.3 601 171.7 601 128.8 601C86 601 43 601 21.5 601L0 601Z" fill="#ef5f67"></path><path d="M0 542L21.5 536.8C43 531.7 86 521.3 128.8 521C171.7 520.7 214.3 530.3 257.2 533.5C300 536.7 343 533.3 385.8 530.8C428.7 528.3 471.3 526.7 514.2 525.7C557 524.7 600 524.3 642.8 521.8C685.7 519.3 728.3 514.7 771.2 512.2C814 509.7 857 509.3 878.5 509.2L900 509L900 601L878.5 601C857 601 814 601 771.2 601C728.3 601 685.7 601 642.8 601C600 601 557 601 514.2 601C471.3 601 428.7 601 385.8 601C343 601 300 601 257.2 601C214.3 601 171.7 601 128.8 601C86 601 43 601 21.5 601L0 601Z" fill="#e34c67"></path><path d="M0 536L21.5 536.8C43 537.7 86 539.3 128.8 543.2C171.7 547 214.3 553 257.2 555.5C300 558 343 557 385.8 553.3C428.7 549.7 471.3 543.3 514.2 540.8C557 538.3 600 539.7 642.8 538.8C685.7 538 728.3 535 771.2 537.8C814 540.7 857 549.3 878.5 553.7L900 558L900 601L878.5 601C857 601 814 601 771.2 601C728.3 601 685.7 601 642.8 601C600 601 557 601 514.2 601C471.3 601 428.7 601 385.8 601C343 601 300 601 257.2 601C214.3 601 171.7 601 128.8 601C86 601 43 601 21.5 601L0 601Z" fill="#d53867"></path><path d="M0 580L21.5 578C43 576 86 572 128.8 570.2C171.7 568.3 214.3 568.7 257.2 566.8C300 565 343 561 385.8 560.3C428.7 559.7 471.3 562.3 514.2 565.7C557 569 600 573 642.8 575.2C685.7 577.3 728.3 577.7 771.2 575.5C814 573.3 857 568.7 878.5 566.3L900 564L900 601L878.5 601C857 601 814 601 771.2 601C728.3 601 685.7 601 642.8 601C600 601 557 601 514.2 601C471.3 601 428.7 601 385.8 601C343 601 300 601 257.2 601C214.3 601 171.7 601 128.8 601C86 601 43 601 21.5 601L0 601Z" fill="#c62368"></path></svg>